<?xml version="1.0" encoding="utf-8"?>
<!-- Generator: Adobe Illustrator 24.0.0, SVG Export Plug-In . SVG Version: 6.00 Build 0)  -->
<svg version="1.1" id="Слой_1" xmlns="http://www.w3.org/2000/svg" xmlns:xlink="http://www.w3.org/1999/xlink" x="0px" y="0px"
	 viewBox="0 0 85 78" style="enable-background:new 0 0 85 78;" xml:space="preserve">
<style type="text/css">
	.st0{fill:none;stroke:#676767;stroke-width:3;stroke-miterlimit:10;}
	.st1{fill:none;stroke:#676767;stroke-width:3;stroke-linecap:round;stroke-miterlimit:10;}
	.st2{fill:none;stroke:#676767;stroke-width:3;stroke-linecap:round;stroke-linejoin:round;stroke-miterlimit:10;}
</style>
<image style="display:none;overflow:visible;" width="63" height="57" xlink:href="FDA091C2.jpg"  transform="matrix(2.2242 0 0 2.2242 -30.3298 -19.7766)">
</image>
<path class="st0" d="M52.5,73.5c-0.4,2.2-20,5.3-35-6C14.6,65.3,3.1,56,2.5,40C2,27.3,8.6,16.7,16.5,10.5c15-11.7,36.3-8.2,37-5
	c0.5,2.2-8.5,2.9-16,12c-8.3,10-8.1,22.1-8,24c0.1,1.8,0.7,15.9,11,25C46.7,72,52.7,72.3,52.5,73.5z"/>
<line class="st1" x1="25.5" y1="55.5" x2="32.5" y2="65.5"/>
<line class="st1" x1="35.5" y1="68.5" x2="37.5" y2="70.5"/>
<polygon class="st2" points="62.8,37 56.9,33.8 51,36.9 52.1,30.3 47.4,25.7 54,24.7 57,18.8 59.9,24.8 66.5,25.8 61.7,30.4 "/>
<polygon class="st2" points="78.2,60 72.3,56.8 66.4,59.9 67.5,53.3 62.8,48.6 69.4,47.7 72.4,41.7 75.3,47.7 81.9,48.7 77.1,53.4 
	"/>
</svg>
