<?xml version="1.0" encoding="utf-8"?>
<!-- Generator: Adobe Illustrator 24.0.0, SVG Export Plug-In . SVG Version: 6.00 Build 0)  -->
<svg version="1.1" id="Слой_1" xmlns="http://www.w3.org/2000/svg" xmlns:xlink="http://www.w3.org/1999/xlink" x="0px" y="0px"
	 viewBox="0 0 243.1 240.5" style="enable-background:new 0 0 243.1 240.5;" xml:space="preserve">
<style type="text/css">
	.st0{fill:none;stroke:#676767;stroke-width:8;stroke-linecap:round;stroke-miterlimit:10;}
	.st1{fill:#676767;stroke:#676767;stroke-width:6;stroke-miterlimit:10;}
	.st2{fill:none;stroke:#676767;stroke-width:4;stroke-linecap:round;stroke-linejoin:round;stroke-miterlimit:10;}
	.st3{fill:none;stroke:#676767;stroke-width:4;stroke-linejoin:round;stroke-miterlimit:10;}
</style>
<image style="display:none;overflow:visible;enable-background:new    ;" width="309" height="278" xlink:href="F1CB6441.jpg"  transform="matrix(0.9966 0 0 0.9966 -38.9751 -19.2512)">
</image>
<path class="st0" d="M70.4,6.4c-3.9-0.1-28.1-0.4-47,19c-18.8,19.2-18.2,43-18,47"/>
<path class="st0" d="M66.9,25.9c-2.7,0-19,0.2-31.5,13.5C23.7,51.9,23.8,67,23.9,69.9"/>
<path class="st0" d="M211.4,156.4c1.2,2.6,7.5,17.3,1,34c-5.8,14.9-18,21.5-21,23"/>
<path class="st0" d="M228.4,145.4c2.2,5.5,9.3,24.9,2,48c-8.4,26.5-29.5,38.5-34,41"/>
<g>
	<path class="st1" d="M127.9,25.2c0.5,0,0.9,0.1,1.5,0.2c2.9,0.8,4.5,3.9,5,5c2.2,4.6,26.8,63.4,60,144c0.9,1.7,1.9,4.4,1,7
		c-1,2.9-3.8,4.4-5,5c-21.2,11-31.8,16.5-75,30c-0.4,0.1-1.2,0.4-2.2,0.4c-0.6,0-1.2-0.1-1.8-0.4c-1.8-0.8-2.6-2.8-3-4
		c-33-77.6-56.9-134-60-141c-0.5-1.1-2-4.4-1-8c1-3.5,3.9-5.8,6-7c24.3-10.3,48.7-20.7,73-31C126.8,25.3,127.4,25.2,127.9,25.2
		 M127.9,22.2L127.9,22.2c-0.7,0-1.5,0.1-2.2,0.3c-0.2,0-0.3,0.1-0.5,0.2L88.7,38.1L52.2,53.6c-0.1,0.1-0.2,0.1-0.4,0.2
		c-3.9,2.3-6.4,5.3-7.4,8.8c-1.3,4.6,0.5,8.6,1.1,10c2.1,4.7,13.5,31.6,30.8,72.4c8.4,19.9,18.3,43,29.1,68.5c1.1,3.5,3.1,5,4.6,5.7
		c0.9,0.4,2,0.6,3.1,0.6c1.4,0,2.5-0.4,3-0.5c43.4-13.6,54.2-19.1,75.5-30.2c1.4-0.7,5.1-2.6,6.5-6.7c0.9-2.8,0.5-5.9-1.1-9.2
		c-33-80.1-57.7-139.3-60-144.1c-0.7-1.3-2.7-5.4-6.9-6.6C129.5,22.3,128.7,22.2,127.9,22.2L127.9,22.2z"/>
</g>
<g>
	<line class="st2" x1="98.4" y1="46.4" x2="86.4" y2="52.4"/>
</g>
<path class="st3" d="M182.9,168.9c-23.7,9.7-47.3,19.3-71,29c-17.7-41.3-35.3-82.7-53-124c24-10,48-20,72-30
	C148.2,85.6,165.6,127.2,182.9,168.9z"/>
<path class="st3" d="M159.9,192.9c-1.6,1.2-4,2.8-7,4c-3.1,1.3-5.9,1.8-8,2c-0.3-0.1-2.2-0.9-3-3c-0.8-1.9-0.1-3.6,0-4
	c1.6-1.2,4-2.8,7-4c3.1-1.3,5.9-1.8,8-2c0.3,0.1,2.2,0.9,3,3C160.7,190.8,160,192.5,159.9,192.9z"/>
</svg>
