<?xml version="1.0" encoding="utf-8"?>
<!-- Generator: Adobe Illustrator 24.0.0, SVG Export Plug-In . SVG Version: 6.00 Build 0)  -->
<svg version="1.1" id="Слой_1" xmlns="http://www.w3.org/2000/svg" xmlns:xlink="http://www.w3.org/1999/xlink" x="0px" y="0px"
	 viewBox="0 0 223 222" style="enable-background:new 0 0 223 222;" xml:space="preserve">
<style type="text/css">
	.st0{fill:none;stroke:#676767;stroke-width:8;stroke-miterlimit:10;}
	.st1{fill:none;stroke:#676767;stroke-width:8;stroke-linecap:round;stroke-miterlimit:10;}
	.st2{fill:none;stroke:#676767;stroke-width:8;stroke-linejoin:round;stroke-miterlimit:10.0001;}
</style>
<image style="display:none;overflow:visible;enable-background:new    ;" width="271" height="247" xlink:href="FEE80F0F.jpg"  transform="matrix(0.9961 0 0 0.9961 -29.4886 -8.854)">
</image>
<line class="st0" x1="41.5" y1="40.5" x2="105.5" y2="105.5"/>
<line class="st0" x1="36.5" y1="111.5" x2="110.5" y2="36.5"/>
<path class="st1" d="M62.5,150.5c29-29,58-58,87-87"/>
<line class="st1" x1="87" y1="173" x2="62" y2="151"/>
<path class="st1" d="M95.5,141.5c-2.7,10.7-5.3,21.3-8,32"/>
<line class="st1" x1="130.5" y1="130.5" x2="95.5" y2="141.5"/>
<line class="st1" x1="140.5" y1="96.5" x2="130.5" y2="130.5"/>
<line class="st1" x1="174.5" y1="86.5" x2="140.5" y2="96.5"/>
<line class="st1" x1="149.5" y1="63.5" x2="174.5" y2="86.5"/>
<path class="st1" d="M90.5,164.5c17.7,18,35.3,36,53,54"/>
<line class="st1" x1="219.5" y1="144.5" x2="143.5" y2="218.5"/>
<line class="st1" x1="164.5" y1="89.5" x2="219.5" y2="144.5"/>
<path class="st2" d="M144.2,68.8c-25,25-49.9,49.9-74.9,74.9c-21.8-21.6-43.7-43.3-65.5-64.9C28.5,53.6,53.3,28.4,78.1,3.2
	C100.2,25.1,122.2,46.9,144.2,68.8z"/>
</svg>
