<?xml version="1.0" encoding="utf-8"?>
<!-- Generator: Adobe Illustrator 24.0.0, SVG Export Plug-In . SVG Version: 6.00 Build 0)  -->
<svg version="1.1" id="Слой_1" xmlns="http://www.w3.org/2000/svg" xmlns:xlink="http://www.w3.org/1999/xlink" x="0px" y="0px"
	 viewBox="0 0 226.4 219.3" style="enable-background:new 0 0 226.4 219.3;" xml:space="preserve">
<style type="text/css">
	.st0{fill:none;stroke:#676767;stroke-width:6;stroke-miterlimit:10;}
	.st1{fill:none;stroke:#676767;stroke-width:6;stroke-linecap:round;stroke-miterlimit:10;}
</style>
<image style="display:none;overflow:visible;enable-background:new    ;" width="316" height="256" xlink:href="97660DD9.jpg"  transform="matrix(0.9965 0 0 0.9965 -44.9004 -19.8126)">
</image>
<path class="st0" d="M200.5,40.5c-11.7,12.7-23.3,25.3-35,38"/>
<path class="st0" d="M128.5,2.5c-4,8-11.1,19.7-23,31c-12.3,11.7-24.7,18.4-33,22"/>
<path class="st0" d="M172.5,83.5c-0.9-0.9-12-11.2-27-8c-11.3,2.4-20.3,11.4-23,23"/>
<line class="st1" x1="152.5" y1="108.5" x2="172.5" y2="83.5"/>
<path class="st1" d="M72.5,42.5c-0.6,6.1-1.2,19.8,7,33c6.8,11,20.2,22.8,36,24c10.1,0.8,17.8-3.2,28,2c4.2,2.1,7.2,5,9,7"/>
<path class="st0" d="M219.5,188.5c0.3,2.2,0.6,6.8-2,11c-2.7,4.3-7.2,6.1-10,7c-17.1,5.7-43.5,5.9-50,6c-26,0.3-30.4,0.7-39-2
	c-5.8-1.8-10.9-5.5-22-11c0,0-26.3-14.6-48-38c-2.2-2.4-4-4.7-5-8c-1.5-5.2,0.8-6.9-1-11c-2.4-5.4-8.7-7.6-10-8
	c-2.4-0.8-4.3-0.9-5-1c-8.7-0.9-22.9-16.8-22-32c0.2-3.2,1.3-11,24-30c9.6-8.1,23.9-18.7,43-29"/>
<line class="st0" x1="152.5" y1="108.5" x2="167.5" y2="151.5"/>
<path class="st1" d="M167.5,151.5c30.5,2.5,52.2,13.5,54,27c0.3,2.5,0.1,5.9-2,10"/>
<path class="st0" d="M12.5,87.5c-0.1,3,0.1,7.3,2,12c3.1,7.7,9.1,11.9,12,14c9.7,7.1,16.9,17.1,26,25c41.2,35.5,38.7,42.2,58,51
	c15,6.9,28.5,8.3,44,10c21.9,2.4,22.4-1.4,45-1c2.4,0,7.7,0.2,13-3c3.6-2.1,5.7-5,7-7"/>
<path class="st0" d="M207.5,161.5c-5.3,0.8-11.9,2.7-15,8c-3.3,5.7,0.2,10.2-3,14c-4.8,5.6-15.4-1.2-26,4c-5.8,2.8-9.1,8-11,12"/>
<path class="st0" d="M167.5,151.5c-0.5,0.5-3.6,3.7-3,8c0,0,0.6,3.7,4,6c5.1,3.4,15.2-0.3,25-9"/>
<path class="st0" d="M284.5,173.5"/>
<line class="st1" x1="152.5" y1="149.5" x2="166.5" y2="149.5"/>
<line class="st1" x1="149.5" y1="138.5" x2="162.5" y2="138.5"/>
<line class="st1" x1="146.5" y1="128.5" x2="159.5" y2="128.5"/>
<line class="st1" x1="140.5" y1="118.5" x2="155.5" y2="118.5"/>
<path class="st1" d="M62.5,48.5c0,5.5,0.5,34.6,21,50c15.4,11.5,36.5,11.2,54,11c6.2-0.1,11.4-0.6,15-1"/>
<path class="st1" d="M39.5,63.5c20.8,15.7,30.7,38.4,25,57c-1.3,4.1-4.2,11.1-12,18"/>
<path class="st1" d="M109.5,108.5c3.7,6.7,11.9,23.6,10,46c-1.4,15.8-7.2,27.6-11,34"/>
</svg>
