<?xml version="1.0" encoding="utf-8"?>
<!-- Generator: Adobe Illustrator 24.0.0, SVG Export Plug-In . SVG Version: 6.00 Build 0)  -->
<svg version="1.1" id="Слой_1" xmlns="http://www.w3.org/2000/svg" xmlns:xlink="http://www.w3.org/1999/xlink" x="0px" y="0px"
	 viewBox="0 0 298 300" style="enable-background:new 0 0 298 300;" xml:space="preserve">
<style type="text/css">
	.st0{fill:#C9CED1;}
	.st1{fill:none;stroke:#C9CED1;stroke-width:10;stroke-linecap:round;stroke-miterlimit:10;}
</style>
<g>
	<path class="st0" d="M150.5,16c35.6,0,69.2,14,94.4,39.5C270.1,81,284,114.9,284,151s-13.9,70-39.1,95.5
		C219.7,272,186.1,286,150.5,286s-69.2-14-94.4-39.5C30.9,221,17,187.1,17,151s13.9-70,39.1-95.5C81.3,30,114.9,16,150.5,16
		 M150.5,6C71.2,6,7,70.9,7,151s64.2,145,143.5,145S294,231.1,294,151S229.8,6,150.5,6L150.5,6z"/>
</g>
<g>
	<line class="st1" x1="56" y1="151" x2="251" y2="151"/>
</g>
<g>
	<path class="st1" d="M55.5,150.5c24.8-13.5,49.7-27,74.5-40.5"/>
</g>
<g>
	<path class="st1" d="M55.2,151.1c22.6,12.3,45.2,24.6,67.8,36.9"/>
</g>
</svg>
